
<svg xmlns="http://www.w3.org/2000/svg" viewBox="0 0 64 80" width="64" height="80" role="img" aria-label="Chunky pixel S icon">
<style>
  :root {
    --c-bg: #000000;
    --c-on: #ffffff;
    --c-accent: #ff00f0;
  }
</style>
<rect width="64" height="80" fill="var(--c-bg)"/>
<rect x="0"  y="0"  width="16" height="16" fill="var(--c-accent)"/>
<rect x="16" y="0"  width="16" height="16" fill="var(--c-on)"/>
<rect x="32" y="0"  width="16" height="16" fill="var(--c-on)"/>
<rect x="48" y="0"  width="16" height="16" fill="var(--c-accent)"/>

<rect x="0"  y="16"  width="16" height="16" fill="var(--c-accent)"/>
<rect x="16" y="16"  width="16" height="16" fill="var(--c-bg)"/>
<rect x="32" y="16"  width="16" height="16" fill="var(--c-bg)"/>
<rect x="48" y="16"  width="16" height="16" fill="var(--c-accent)"/>

<rect x="0"  y="32"  width="16" height="16" fill="var(--c-on)"/>
<rect x="16" y="32"  width="16" height="16" fill="var(--c-accent)"/>
<rect x="32" y="32"  width="16" height="16" fill="var(--c-accent)"/>
<rect x="48" y="32"  width="16" height="16" fill="var(--c-on)"/>

<rect x="0"  y="48"  width="16" height="16" fill="var(--c-bg)"/>
<rect x="16" y="48"  width="16" height="16" fill="var(--c-bg)"/>
<rect x="32" y="48"  width="16" height="16" fill="var(--c-bg)"/>
<rect x="48" y="48"  width="16" height="16" fill="var(--c-on)"/>

<rect x="0"  y="64"  width="16" height="16" fill="var(--c-on)"/>
<rect x="16" y="64"  width="16" height="16" fill="var(--c-on)"/>
<rect x="32" y="64"  width="16" height="16" fill="var(--c-on)"/>
<rect x="48" y="64"  width="16" height="16" fill="var(--c-on)"/>

</svg>
